{"title":"Vacation (2015) Hq Cam - XviD - MP3","uid":12303203,"size":1204654186,"categoryP":"video","categoryS":"movies","magnet":"?xt=urn:btih:55381cc30e6fc0b233f3819ab11f74ce17da5f3e&amp;dn=Vacation+%282015%29+Hq+Cam+-+XviD+-+MP3&amp;tr=udp%3A%2F%2Ftracker.openbittorrent.com%3A80&amp;tr=udp%3A%2F%2Fopen.demonii.com%3A1337&amp;tr=udp%3A%2F%2Ftracker.coppersurfer.tk%3A6969&amp;tr=udp%3A%2F%2Fexodus.desync.com%3A6969","seeders":21,"leechers":0,"uploader":"SS132203","files":2,"time":1440744275,"description":"Vacation (2015) Hq Cam - XviD - MP3\n &lt;a href=&quot;\nhttp://imgsparrow.co/image/8qF&quot; rel=&quot;nofollow&quot; target=&quot;_NEW&quot;&gt;\nhttp://imgsparrow.co/image/8qF&lt;/a&gt;\n &lt;a href=&quot;\nhttp://imgsparrow.co/image/9b&quot; rel=&quot;nofollow&quot; target=&quot;_NEW&quot;&gt;\nhttp://imgsparrow.co/image/9b&lt;/a&gt;\n\nInfo : - \n\nFormat: AVI\nFormat/Info: Audio Video Interleave\nFormat profile: OpenDML\nFile size: 1.12 GiB\nDuration: 1h 34mn\nOverall bit rate: 1 692 Kbps\n\nVideo\nID: 0\nFormat: MPEG-4 Visual\nFormat profile: Simple@L3\nFormat settings, BVOP: No\nFormat settings, QPel: No\nFormat settings, GMC: No warppoints\nFormat settings, Matrix: Default (H.263)\nCodec ID: XVID\nCodec ID/Hint: XviD\nDuration: 1h 34mn\nBit rate: 1 547 Kbps\nWidth: 640 pixels\nHeight: 272 pixels\nDisplay aspect ratio: 2.35:1\nFrame rate: 29.970 fps\nOriginal frame rate: 29.000 fps\nColor space: YUV\nChroma subsampling: 4:2:0\nBit depth: 8 bits\nScan type: Progressive\nCompression mode: Lossy\nBits/(Pixel*Frame): 0.296\nStream size: 1.03 GiB (91%)\nWriting library: XviD 1.2.1 (UTC 2008-12-04)\n\nAudio\nID: 1\nFormat: MPEG Audio\nFormat version: Version 1\nFormat profile: Layer 3\nMode: Joint stereo\nMode extension: MS Stereo\nCodec ID: 55\nCodec ID/Hint: MP3\nDuration: 1h 34mn\nBit rate mode: Constant\nBit rate: 128 Kbps\nChannel(s): 2 channels\nSampling rate: 44.1 KHz\nCompression mode: Lossy\nStream size: 86.9 MiB (8%)\nAlignment: Aligned on interleaves\nInterleave, duration: 26 ms (0.78 video frame)\nWriting library: LAME3.98.2\n\nScreens : - \n &lt;a href=&quot;\nhttp://imgsparrow.co/image/8qK&quot; rel=&quot;nofollow&quot; target=&quot;_NEW&quot;&gt;\nhttp://imgsparrow.co/image/8qK&lt;/a&gt; &lt;a href=&quot;\nhttp://imgsparrow.co/image/8q2&quot; rel=&quot;nofollow&quot; target=&quot;_NEW&quot;&gt;\nhttp://imgsparrow.co/image/8q2&lt;/a&gt; &lt;a href=&quot;\nhttp://imgsparrow.co/image/8q3&quot; rel=&quot;nofollow&quot; target=&quot;_NEW&quot;&gt;\nhttp://imgsparrow.co/image/8q3&lt;/a&gt; &lt;a href=&quot;\nhttp://imgsparrow.co/image/8qi&quot; rel=&quot;nofollow&quot; target=&quot;_NEW&quot;&gt;\nhttp://imgsparrow.co/image/8qi&lt;/a&gt; &lt;a href=&quot;\nhttp://imgsparrow.co/image/8qV&quot; rel=&quot;nofollow&quot; target=&quot;_NEW&quot;&gt;\nhttp://imgsparrow.co/image/8qV&lt;/a&gt; &lt;a href=&quot;\nhttp://imgsparrow.co/image/8ql&quot; rel=&quot;nofollow&quot; target=&quot;_NEW&quot;&gt;\nhttp://imgsparrow.co/image/8ql&lt;/a&gt;\n &lt;a href=&quot;\nhttp://imgsparrow.co/image/N2&quot; rel=&quot;nofollow&quot; target=&quot;_NEW&quot;&gt;\nhttp://imgsparrow.co/image/N2&lt;/a&gt;","torrent":{"xt":"urn:btih:55381cc30e6fc0b233f3819ab11f74ce17da5f3e","amp;dn":"Vacation+%282015%29+Hq+Cam+-+XviD+-+MP3","amp;tr":["udp%3A%2F%2Ftracker.openbittorrent.com%3A80","udp%3A%2F%2Fopen.demonii.com%3A1337","udp%3A%2F%2Ftracker.coppersurfer.tk%3A6969","udp%3A%2F%2Fexodus.desync.com%3A6969"],"infoHash":"55381cc30e6fc0b233f3819ab11f74ce17da5f3e","infoHashBuffer":{"type":"Buffer","data":[85,56,28,195,14,111,192,178,51,243,129,154,177,31,116,206,23,218,95,62]},"announce":[],"urlList":[]}}